<?xml version="1.0" encoding="utf-8"?>
<!-- Generator: Adobe Illustrator 16.0.0, SVG Export Plug-In . SVG Version: 6.00 Build 0)  -->
<!DOCTYPE svg PUBLIC "-//W3C//DTD SVG 1.1//EN" "http://www.w3.org/Graphics/SVG/1.1/DTD/svg11.dtd">
<svg version="1.1" id="图层_1" xmlns="http://www.w3.org/2000/svg" xmlns:xlink="http://www.w3.org/1999/xlink" x="0px" y="0px"
	 width="100px" height="100px" viewBox="0 0 100 100" enable-background="new 0 0 100 100" xml:space="preserve">
<rect fill="#A92124" width="100" height="100"/>
<g>
	<polygon fill="#FFFFFF" points="31.853,44.651 42.427,31.284 37.04,31.284 25.668,46.048 25.668,31.284 25.55,31.284 21.08,31.284 
		20.961,31.284 20.961,45.649 9.589,45.649 9.589,31.284 5,31.284 5,65.4 9.589,65.4 9.589,49.439 20.961,49.439 20.961,65.4 
		21.08,65.4 25.55,65.4 25.668,65.4 25.668,52.632 28.86,48.442 38.038,65.4 43.225,65.4 	"/>
	<g>
		<rect x="48.692" y="31.384" fill="#FFFFFF" width="3.99" height="5.188"/>
		<path fill="#FFFFFF" d="M66.449,44.552c-1.197-1.328-2.993-1.995-5.387-1.995c-1.995,0-3.626,0.399-4.889,1.197
			c-1.266,0.798-2.428,1.93-3.49,3.392v-4.189h-0.002h-3.989h-0.001v22.345h0.001h3.989h0.002V55.126
			c0-2.659,0.763-4.888,2.293-6.684c1.527-1.795,3.158-2.693,4.889-2.693c1.327,0,2.395,0.468,3.192,1.396
			c0.798,0.933,1.196,2.195,1.196,3.791v14.365h3.99V49.54C68.244,47.544,67.646,45.883,66.449,44.552z"/>
	</g>
	<path fill="#FFFFFF" d="M95,46.447c-0.933-0.265-1.83-0.43-2.693-0.499c-0.867-0.065-1.765,0.035-2.693,0.299
		c0.399,0.399,0.729,0.897,0.998,1.496c0.265,0.599,0.398,1.497,0.398,2.693c0,2.264-0.768,4.125-2.294,5.586
		c-1.531,1.466-3.427,2.194-5.687,2.194c-0.533,0-1.231-0.1-2.095-0.299c-0.867-0.2-1.565-0.43-2.095-0.698
		c-0.398,0.269-0.668,0.533-0.798,0.798c-0.135,0.269-0.199,0.599-0.199,0.997c0,0.668,0.464,1.167,1.396,1.497
		c0.928,0.334,2.594,0.498,4.987,0.498c3.856,0,6.484,0.534,7.881,1.597c1.396,1.066,2.095,2.394,2.095,3.99
		c0,2.125-1.032,3.69-3.093,4.688c-2.063,0.997-4.488,1.496-7.281,1.496c-3.592,0-6.255-0.469-7.98-1.396
		c-1.73-0.933-2.594-2.194-2.594-3.791c0-0.798,0.33-1.596,0.997-2.394c0.664-0.799,1.527-1.462,2.594-1.995
		c-0.798-0.399-1.431-0.898-1.896-1.497c-0.468-0.598-0.698-1.361-0.698-2.294c0-0.798,0.3-1.496,0.898-2.095
		s1.297-1.098,2.095-1.496c-0.668-0.664-1.197-1.462-1.597-2.395c-0.398-0.928-0.598-1.926-0.598-2.993
		c0-2.26,0.763-4.121,2.294-5.586c1.526-1.462,3.422-2.195,5.686-2.195c1.197,0,2.226,0.168,3.093,0.499
		c0.863,0.333,1.627,0.833,2.294,1.496c1.063-0.798,2.126-1.362,3.192-1.696c1.063-0.331,2.194-0.43,3.392-0.299V46.447z
		 M90.411,66.996c0-0.533-0.299-1.063-0.897-1.596c-0.599-0.529-2.095-0.798-4.489-0.798c-0.533,0-1.266-0.03-2.194-0.1
		c-0.933-0.065-1.995-0.165-3.192-0.3c-1.066,0.399-1.795,0.867-2.194,1.396c-0.398,0.533-0.599,1.063-0.599,1.597
		c0,0.798,0.529,1.461,1.597,1.995c1.063,0.529,2.923,0.798,5.586,0.798c2.26,0,3.891-0.3,4.888-0.898
		C89.913,68.493,90.411,67.794,90.411,66.996z M87.02,50.437c0-1.328-0.334-2.394-0.997-3.192c-0.668-0.798-1.665-1.197-2.993-1.197
		c-1.331,0-2.328,0.399-2.992,1.197c-0.668,0.798-0.998,1.864-0.998,3.192c0,1.332,0.33,2.394,0.998,3.192
		c0.664,0.799,1.661,1.197,2.992,1.197c1.328,0,2.325-0.398,2.993-1.197C86.686,52.831,87.02,51.769,87.02,50.437z"/>
</g>
</svg>
